<?xml version="1.0" encoding="UTF-8"?>
<svg xmlns="http://www.w3.org/2000/svg" width="1000" height="740" viewBox="0 0 1000 740" role="img" aria-labelledby="title desc">
  <title id="title">StarLive growth for SMNETSTUDIO/StarLive</title>
  <desc id="desc">Repository growth dashboard showing stars, forks over time.</desc>
  <defs>
    <linearGradient id="background" x1="0" y1="0" x2="1" y2="1">
      <stop offset="0" stop-color="#fafafa"/><stop offset="1" stop-color="#f4f4f5"/>
    </linearGradient>
    <linearGradient id="fill-stars" x1="0" y1="0" x2="0" y2="1"><stop offset="0" stop-color="#8b5cf6" stop-opacity=".24"/><stop offset="1" stop-color="#8b5cf6" stop-opacity="0"/></linearGradient><linearGradient id="fill-forks" x1="0" y1="0" x2="0" y2="1"><stop offset="0" stop-color="#06b6d4" stop-opacity=".24"/><stop offset="1" stop-color="#06b6d4" stop-opacity="0"/></linearGradient>
    <filter id="shadow" x="-10%" y="-10%" width="120%" height="130%"><feDropShadow dx="0" dy="8" stdDeviation="14" flood-color="#18181b" flood-opacity=".08"/></filter>
    <style>
      :root { color-scheme: light dark; }
      .bg { fill: url(#background); }
      .surface { fill: #ffffff; stroke: #e4e4e7; }
      .panel { fill: #ffffff; stroke: #e4e4e7; }
      .primary { fill: #18181b; }
      .secondary { fill: #71717a; }
      .grid { stroke: #e4e4e7; }
      text { font-family: Inter, ui-sans-serif, system-ui, -apple-system, BlinkMacSystemFont, "Segoe UI", sans-serif; }
      @media (prefers-color-scheme: dark) {
        .bg { fill: #09090b; }
        .surface, .panel { fill: #111113; stroke: #27272a; }
        .primary { fill: #fafafa; }
        .secondary { fill: #a1a1aa; }
        .grid { stroke: #27272a; }
      }
    </style>
  </defs>
  <rect class="bg" width="1000" height="740" rx="28"/>
  <g transform="translate(42 38)">
    <rect x="0" y="0" width="916" height="664" rx="22" class="surface" filter="url(#shadow)"/>
    <text x="30" y="45" class="primary" font-size="26" font-weight="750" letter-spacing="-.5">StarLive growth</text>
    <text x="30" y="70" class="secondary" font-size="14">SMNETSTUDIO/StarLive · Aug 19, 2026 – Sep 25, 2026</text>
    <g transform="translate(740 25)"><rect width="146" height="30" rx="15" fill="#8b5cf6" fill-opacity=".12"/><circle cx="17" cy="15" r="4" fill="#8b5cf6"/><text x="30" y="20" fill="#8b5cf6" font-size="11" font-weight="700" letter-spacing="1">LOCAL HISTORY</text></g>
    <g transform="translate(30 92)">
    <rect width="418" height="86" rx="16" class="panel"/>
    <rect x="16" y="17" width="6" height="52" rx="3" fill="#8b5cf6"/>
    <text x="38" y="34" class="secondary" font-size="12" font-weight="650" letter-spacing=".3">STARS</text>
    <text x="38" y="64" class="primary" font-size="27" font-weight="760" letter-spacing="-.5">166</text>
    <text x="392" y="63" text-anchor="end" fill="#8b5cf6" font-size="11" font-weight="650">+157 tracked</text>
  </g><g transform="translate(468 92)">
    <rect width="418" height="86" rx="16" class="panel"/>
    <rect x="16" y="17" width="6" height="52" rx="3" fill="#06b6d4"/>
    <text x="38" y="34" class="secondary" font-size="12" font-weight="650" letter-spacing=".3">FORKS</text>
    <text x="38" y="64" class="primary" font-size="27" font-weight="760" letter-spacing="-.5">73</text>
    <text x="392" y="63" text-anchor="end" fill="#06b6d4" font-size="11" font-weight="650">+70 tracked</text>
  </g>
    <g transform="translate(30 197)">
    <rect width="856" height="201" rx="16" class="panel"/>
    <circle cx="20" cy="27" r="5" fill="#8b5cf6"/>
    <text x="34" y="31" class="primary" font-size="14" font-weight="700">Stars</text>
    <text x="20" y="62" class="primary" font-size="20" font-weight="750">166</text>
    <text x="20" y="83" class="secondary" font-size="11">range 9–166</text>
    <line x1="220" x2="836" y1="20" y2="20" class="grid" stroke-width="1" stroke-dasharray="3 6"/><text x="210" y="24" text-anchor="end" class="secondary" font-size="9">166</text><line x1="220" x2="836" y1="95" y2="95" class="grid" stroke-width="1" stroke-dasharray="3 6"/><text x="210" y="99" text-anchor="end" class="secondary" font-size="9">88</text><line x1="220" x2="836" y1="170" y2="170" class="grid" stroke-width="1" stroke-dasharray="3 6"/><text x="210" y="174" text-anchor="end" class="secondary" font-size="9">9</text>
    <path d="M220 170 L236.6 116.5 L253.3 86.9 L269.9 73.5 L286.6 60.1 L303.2 47.7 L319.9 40.1 L336.5 40.1 L353.2 35.3 L369.8 33.4 L386.5 33.4 L403.1 32.4 L419.8 32.4 L436.4 31.5 L453.1 31.5 L469.7 30.5 L486.4 29.6 L503 28.6 L519.7 28.6 L536.3 28.6 L553 27.6 L569.6 26.7 L586.3 25.7 L602.9 25.7 L619.6 24.8 L636.2 23.8 L652.9 23.8 L669.5 22.9 L686.2 21.9 L702.8 21 L719.5 21 L736.1 21 L752.8 21 L769.4 21 L786.1 21 L802.7 21 L819.4 20 L836 20 L836 170 L220 170 Z" fill="url(#fill-stars)"/>
    <path d="M220 170 L236.6 116.5 L253.3 86.9 L269.9 73.5 L286.6 60.1 L303.2 47.7 L319.9 40.1 L336.5 40.1 L353.2 35.3 L369.8 33.4 L386.5 33.4 L403.1 32.4 L419.8 32.4 L436.4 31.5 L453.1 31.5 L469.7 30.5 L486.4 29.6 L503 28.6 L519.7 28.6 L536.3 28.6 L553 27.6 L569.6 26.7 L586.3 25.7 L602.9 25.7 L619.6 24.8 L636.2 23.8 L652.9 23.8 L669.5 22.9 L686.2 21.9 L702.8 21 L719.5 21 L736.1 21 L752.8 21 L769.4 21 L786.1 21 L802.7 21 L819.4 20 L836 20" fill="none" stroke="#8b5cf6" stroke-width="3" stroke-linecap="round" stroke-linejoin="round"/>
    <circle cx="836" cy="20" r="5" fill="#8b5cf6" stroke="#fff" stroke-width="2"/>
    <text x="220" y="194" text-anchor="start" class="secondary" font-size="9">Aug 19, 2026</text><text x="528" y="194" text-anchor="middle" class="secondary" font-size="9">Sep 6, 2026</text><text x="836" y="194" text-anchor="end" class="secondary" font-size="9">Sep 25, 2026</text>
  </g><g transform="translate(30 414)">
    <rect width="856" height="201" rx="16" class="panel"/>
    <circle cx="20" cy="27" r="5" fill="#06b6d4"/>
    <text x="34" y="31" class="primary" font-size="14" font-weight="700">Forks</text>
    <text x="20" y="62" class="primary" font-size="20" font-weight="750">73</text>
    <text x="20" y="83" class="secondary" font-size="11">range 3–73</text>
    <line x1="220" x2="836" y1="20" y2="20" class="grid" stroke-width="1" stroke-dasharray="3 6"/><text x="210" y="24" text-anchor="end" class="secondary" font-size="9">73</text><line x1="220" x2="836" y1="95" y2="95" class="grid" stroke-width="1" stroke-dasharray="3 6"/><text x="210" y="99" text-anchor="end" class="secondary" font-size="9">38</text><line x1="220" x2="836" y1="170" y2="170" class="grid" stroke-width="1" stroke-dasharray="3 6"/><text x="210" y="174" text-anchor="end" class="secondary" font-size="9">3</text>
    <path d="M220 170 L236.6 114.3 L253.3 82.1 L269.9 67.1 L286.6 56.4 L303.2 45.7 L319.9 37.1 L336.5 35 L353.2 35 L369.8 32.9 L386.5 32.9 L403.1 30.7 L419.8 30.7 L436.4 28.6 L453.1 26.4 L469.7 26.4 L486.4 24.3 L503 22.1 L519.7 22.1 L536.3 22.1 L553 22.1 L569.6 20 L586.3 20 L602.9 20 L619.6 20 L636.2 22.1 L652.9 22.1 L669.5 22.1 L686.2 22.1 L702.8 20 L719.5 20 L736.1 20 L752.8 20 L769.4 20 L786.1 20 L802.7 20 L819.4 20 L836 20 L836 170 L220 170 Z" fill="url(#fill-forks)"/>
    <path d="M220 170 L236.6 114.3 L253.3 82.1 L269.9 67.1 L286.6 56.4 L303.2 45.7 L319.9 37.1 L336.5 35 L353.2 35 L369.8 32.9 L386.5 32.9 L403.1 30.7 L419.8 30.7 L436.4 28.6 L453.1 26.4 L469.7 26.4 L486.4 24.3 L503 22.1 L519.7 22.1 L536.3 22.1 L553 22.1 L569.6 20 L586.3 20 L602.9 20 L619.6 20 L636.2 22.1 L652.9 22.1 L669.5 22.1 L686.2 22.1 L702.8 20 L719.5 20 L736.1 20 L752.8 20 L769.4 20 L786.1 20 L802.7 20 L819.4 20 L836 20" fill="none" stroke="#06b6d4" stroke-width="3" stroke-linecap="round" stroke-linejoin="round"/>
    <circle cx="836" cy="20" r="5" fill="#06b6d4" stroke="#fff" stroke-width="2"/>
    <text x="220" y="194" text-anchor="start" class="secondary" font-size="9">Aug 19, 2026</text><text x="528" y="194" text-anchor="middle" class="secondary" font-size="9">Sep 6, 2026</text><text x="836" y="194" text-anchor="end" class="secondary" font-size="9">Sep 25, 2026</text>
  </g>
    <text x="30" y="645" class="secondary" font-size="11">Updated Sep 25, 2026</text>
    <a href="https://github.com/MacRimi/repo-growth" target="_blank" aria-label="Open the Repo Growth project">
      <text x="886" y="645" fill="#8b5cf6" text-anchor="end" font-size="13" font-weight="700">Generated by Repo Growth ↗</text>
    </a>
  </g>
</svg>
